<?xml version="1.0" encoding="UTF-8"?>
<svg width="543px" height="370px" viewBox="0 0 543 370" version="1.1" xmlns="http://www.w3.org/2000/svg" xmlns:xlink="http://www.w3.org/1999/xlink">
    <!-- Generator: Sketch 58 (84663) - https://sketch.com -->
    <title>forked-commit-history</title>
    <desc>Created with Sketch.</desc>
    <g id="Page-1" stroke="none" stroke-width="1" fill="none" fill-rule="evenodd">
        <g id="forked-commit-history" transform="translate(2.000000, 2.000000)">
            <path d="M211.5,182.5 C211.5,205.1 193.1,223.5 170.5,223.5 M211.5,182.5 C211.5,159.9 229.9,141.5 252.5,141.5 L467.6,141.5" id="Shape" stroke="#404040" stroke-width="4"></path>
            <circle id="Oval" stroke="#404040" stroke-width="4" fill="#4ED1A1" fill-rule="nonzero" cx="295.9" cy="141.5" r="21"></circle>
            <circle id="Oval" stroke="#404040" stroke-width="4" fill="#4ED1A1" fill-rule="nonzero" cx="392.2" cy="141.5" r="21"></circle>
            <circle id="Oval" stroke="#404040" stroke-width="4" fill="#4ED1A1" fill-rule="nonzero" cx="488.4" cy="141.5" r="21"></circle>
            <path d="M0.5,223.5 L170.5,223.5" id="Path" stroke="#404040" stroke-width="4"></path>
            <circle id="Oval" stroke="#404040" stroke-width="4" fill="#FFFFFF" fill-rule="nonzero" cx="21.5" cy="223.5" r="21"></circle>
            <circle id="Oval" stroke="#404040" stroke-width="4" fill="#FFFFFF" fill-rule="nonzero" cx="117.5" cy="223.5" r="21"></circle>
            <path d="M153.8,223.5 L369.9,223.5" id="Path" stroke="#404040" stroke-width="4"></path>
            <circle id="Oval" stroke="#404040" stroke-width="4" fill="#B3E3FF" fill-rule="nonzero" cx="294.9" cy="223.5" r="21"></circle>
            <circle id="Oval" stroke="#404040" stroke-width="4" fill="#B3E3FF" fill-rule="nonzero" stroke-linejoin="round" cx="390.9" cy="223.5" r="21"></circle>
            <polygon id="Path" stroke="#404040" stroke-width="4" fill="#4ED1A1" fill-rule="nonzero" stroke-linecap="round" stroke-linejoin="round" points="438.4 0.5 538.4 0.5 538.4 50.5 438.4 50.5"></polygon>
            <path d="M461.6,31.5 L461.6,20.9 L468.1,20.9 L468.1,22.3 L463.1,22.3 L463.1,25.7 L467.6,25.7 L467.6,27.1 L463.1,27.1 L463.1,31.6 L461.6,31.6 L461.6,31.5 Z M476.2,29.5 C475.8,30.8 474.6,31.8 473,31.8 C471.1,31.8 469.4,30.4 469.4,27.9 C469.4,25.6 471,24.1 472.8,24.1 C475,24.1 476.3,25.6 476.3,27.9 L476.3,28.3 L470.9,28.3 C470.9,29.6 471.9,30.5 473.1,30.5 C474.3,30.5 474.9,29.9 475.1,29 L476.2,29.5 Z M474.8,27.2 C474.8,26.2 474.1,25.4 472.8,25.4 C471.6,25.4 470.9,26.3 470.8,27.2 L474.8,27.2 Z M480.6,27.4 L482.5,27.1 C482.9,27 483.1,26.8 483.1,26.6 C483.1,25.9 482.6,25.3 481.5,25.3 C480.5,25.3 480,25.9 479.9,26.8 L478.5,26.5 C478.7,25.1 479.9,24.2 481.5,24.2 C483.7,24.2 484.5,25.4 484.5,26.8 L484.5,30.4 C484.5,31 484.6,31.4 484.6,31.6 L483.2,31.6 C483.2,31.4 483.1,31.1 483.1,30.6 C482.8,31.1 482.1,31.8 480.8,31.8 C479.3,31.8 478.4,30.8 478.4,29.6 C478.4,28.3 479.3,27.6 480.6,27.4 L480.6,27.4 Z M483.1,28.4 L483.1,28.1 L480.9,28.4 C480.3,28.5 479.8,28.8 479.8,29.5 C479.8,30 480.2,30.5 481,30.5 C482.2,30.6 483.1,30 483.1,28.4 Z M489.3,24.3 L490.9,24.3 L490.9,25.6 L489.3,25.6 L489.3,29.4 C489.3,30.1 489.6,30.4 490.3,30.4 C490.5,30.4 490.7,30.4 490.9,30.3 L490.9,31.5 C490.8,31.5 490.4,31.6 489.9,31.6 C488.7,31.6 487.9,30.8 487.9,29.5 L487.9,25.5 L486.5,25.5 L486.5,24.2 L486.9,24.2 C487.7,24.2 488,23.7 488,23.1 L488,22 L489.3,22 L489.3,24.3 L489.3,24.3 Z M496.1,31.7 C494.4,31.7 493.4,30.4 493.4,28.8 L493.4,24.3 L494.8,24.3 L494.8,28.6 C494.8,29.6 495.2,30.5 496.4,30.5 C497.5,30.5 498.1,29.7 498.1,28.7 L498.1,24.3 L499.5,24.3 L499.5,30.2 C499.5,30.8 499.5,31.3 499.6,31.5 L498.2,31.5 C498.2,31.3 498.1,30.9 498.1,30.6 C497.9,31.4 497,31.7 496.1,31.7 L496.1,31.7 Z M506.8,25.7 L506.2,25.7 C505,25.7 504.2,26.3 504.2,27.9 L504.2,31.5 L502.8,31.5 L502.8,24.3 L504.2,24.3 L504.2,25.6 C504.7,24.5 505.6,24.2 506.4,24.2 L506.9,24.2 L506.9,25.7 L506.8,25.7 Z M515.2,29.5 C514.8,30.8 513.6,31.8 512,31.8 C510.1,31.8 508.4,30.4 508.4,27.9 C508.4,25.6 510,24.1 511.8,24.1 C514,24.1 515.3,25.6 515.3,27.9 L515.3,28.3 L509.9,28.3 C509.9,29.6 510.9,30.5 512.1,30.5 C513.3,30.5 513.9,29.9 514.1,29 L515.2,29.5 Z M513.8,27.2 C513.8,26.2 513.1,25.4 511.8,25.4 C510.6,25.4 509.9,26.3 509.8,27.2 L513.8,27.2 Z" id="Shape" fill="#404040" fill-rule="nonzero"></path>
            <path d="M488.4,96.3 L488.4,72.8 M499.3,87.6 L488.4,98.5 L477.6,87.6" id="Shape" stroke="#404040" stroke-width="4" stroke-linecap="round" stroke-linejoin="round"></path>
            <polygon id="Path" stroke="#404040" stroke-width="4" fill="#B3E3FF" fill-rule="nonzero" stroke-linejoin="round" points="340.9 315.5 440.9 315.5 440.9 365.5 340.9 365.5"></polygon>
            <path d="M376.2,346.5 L376.2,338.2 L372.6,346.5 L371.3,346.5 L367.7,338.2 L367.7,346.5 L366.2,346.5 L366.2,335.9 L368.2,335.9 L371.9,344.6 L375.7,335.9 L377.7,335.9 L377.7,346.5 L376.2,346.5 L376.2,346.5 Z M382.6,342.3 L384.5,342 C384.9,341.9 385.1,341.7 385.1,341.5 C385.1,340.8 384.6,340.2 383.5,340.2 C382.5,340.2 382,340.8 381.9,341.7 L380.5,341.4 C380.7,340 381.9,339.1 383.5,339.1 C385.7,339.1 386.5,340.3 386.5,341.7 L386.5,345.3 C386.5,345.9 386.6,346.3 386.6,346.5 L385.2,346.5 C385.2,346.3 385.1,346 385.1,345.5 C384.8,346 384.1,346.7 382.8,346.7 C381.3,346.7 380.4,345.7 380.4,344.5 C380.5,343.2 381.4,342.5 382.6,342.3 Z M385.1,343.4 L385.1,343 L382.9,343.3 C382.3,343.4 381.8,343.7 381.8,344.4 C381.8,344.9 382.2,345.4 383,345.4 C384.2,345.5 385.1,344.9 385.1,343.4 L385.1,343.4 Z M390.1,344.1 C390.2,344.9 390.8,345.4 391.8,345.4 C392.6,345.4 393,345 393,344.4 C393,344 392.7,343.6 392.1,343.5 L390.9,343.2 C389.8,343 389.1,342.2 389.1,341.2 C389.1,340 390.3,338.9 391.7,338.9 C393.7,338.9 394.3,340.2 394.4,340.8 L393.2,341.3 C393.1,340.9 392.8,340.1 391.7,340.1 C391,340.1 390.5,340.6 390.5,341.1 C390.5,341.5 390.8,341.9 391.3,342 L392.5,342.3 C393.8,342.6 394.5,343.4 394.5,344.4 C394.5,345.4 393.6,346.6 391.9,346.6 C389.9,346.6 389.1,345.3 389,344.5 L390.1,344.1 L390.1,344.1 Z M398.9,339.2 L400.5,339.2 L400.5,340.5 L398.9,340.5 L398.9,344.3 C398.9,345 399.2,345.3 399.9,345.3 C400.1,345.3 400.3,345.3 400.5,345.2 L400.5,346.4 C400.4,346.4 400,346.5 399.5,346.5 C398.3,346.5 397.5,345.7 397.5,344.4 L397.5,340.4 L396.1,340.4 L396.1,339.1 L396.5,339.1 C397.3,339.1 397.6,338.6 397.6,338 L397.6,337 L398.9,337 L398.9,339.2 L398.9,339.2 Z M409.3,344.4 C408.9,345.7 407.7,346.7 406.1,346.7 C404.2,346.7 402.5,345.3 402.5,342.8 C402.5,340.5 404.1,339 405.9,339 C408.1,339 409.4,340.5 409.4,342.8 L409.4,343.2 L404,343.2 C404,344.5 405,345.4 406.2,345.4 C407.4,345.4 408,344.8 408.2,343.9 L409.3,344.4 Z M407.9,342.1 C407.9,341.1 407.2,340.3 405.9,340.3 C404.7,340.3 404,341.2 403.9,342.1 L407.9,342.1 Z M415.9,340.7 L415.3,340.7 C414.1,340.7 413.3,341.3 413.3,342.9 L413.3,346.5 L411.9,346.5 L411.9,339.3 L413.3,339.3 L413.3,340.6 C413.8,339.5 414.7,339.2 415.5,339.2 L416,339.2 L416,340.7 L415.9,340.7 Z" id="Shape" fill="#404040" fill-rule="nonzero"></path>
            <path d="M390.9,269.9 L390.9,293.4 M380,278.6 L390.9,267.8 L401.8,278.6" id="Shape" stroke="#404040" stroke-width="4" stroke-linecap="round" stroke-linejoin="round"></path>
        </g>
    </g>
</svg>