<svg xmlns="http://www.w3.org/2000/svg"
    style="transform: none; transform-origin: 50% 50%; cursor: move; max-height: 200x;" width="200" height="200"
    viewBox="0 0 9760 9760">
    <g id="l3riBFTgcnBDs26NXNvS3fU" fill="rgb(219,219,219)">
        <path id="pzqqc1PQz"
            d="M1765 7889 c-156 -13 -300 -55 -383 -111 -164 -111 -196 -291 -95 -551 53 -137 86 -199 440 -820 179 -315 418 -734 531 -932 112 -198 269 -472 347 -610 78 -137 245 -430 370 -650 125 -220 337 -591 470 -825 378 -663 603 -1058 720 -1265 246 -435 284 -493 384 -598 167 -173 304 -212 465 -130 75 38 107 65 188 161 93 110 135 177 343 542 92 162 205 360 250 440 45 80 167 294 270 475 256 449 358 629 600 1055 114 201 254 446 310 545 56 99 176 311 267 470 91 160 223 391 293 515 70 124 183 322 250 440 67 118 189 332 270 475 81 143 174 305 205 361 119 207 199 389 219 500 51 276 -66 426 -389 497 l-95 21 -3070 2 c-1688 1 -3110 -2 -3160 -7z">
        </path>
    </g>
</svg>