<svg class="img-fluid" id="outputsvg" xmlns="http://www.w3.org/2000/svg"  width="140" height="250"
  viewBox="0 0 1400 2500">
  <g id="l7bUGzpOZ3hmuOExJ37udbLj" fill="rgb(18,17,18)" stroke="rgb(18,17,18)" stroke-width="1" fill-rule="evenodd" style="transform: none;">
    <g style="transform: none;">
      <path id="pA3SDGC1D" d="M790 1030 L790 1025C790 1022 790 1017 790 1015 L790 1010L790 1000 800 996 L800 1000 L825 996C844 993 850 997 850 1011 C850 1024 842 1030 825 1030 C811 1030 797 1030 795 1030 L790 1030"/>
      <path id="pjVRBVxDX" d="M510 800 L505 800C502 800 500 797 500 795 L500 790L500 790 500 783 L510 780 L530 780L550 780L550 780 L555 786C557 790 557 795 555 798 C552 801 550 804 550 806 L550 810L550 810 L535 810L520 810L510 810 507 805 "/>
    </g>
  </g>
  <g id="l6twgex01OkqkkFFuMusEdjj" fill="rgb(46,2,46)" stroke="rgb(46,2,46)" stroke-width="1" fill-rule="evenodd" style="transform: none;">
    <g>
      <path id="p13Ivg74e7" d="M500 800 L480 800L460 800L460 800 L460 796C460 794 457 790 453 786 C449 783 458 780 473 780 L500 780L500 780 L500 785C500 787 500 792 500 795 L500 800L501 800 507 805 L510 810 L500 810 501 800 "/>
    </g>
  </g>
  <g id="l5A5WkcEYDpud8PaztfAVCVj" fill="rgb(36,36,36)" stroke="rgb(36,36,36)" stroke-width="1" fill-rule="evenodd" style="transform: none;">
    <g>
      <path id="p16xGhUZHi" d="M760 830 L760 826C760 824 757 820 753 816 C749 813 702 810 648 810 L550 810L550 810 L550 806C550 804 552 801 555 798 C557 795 557 790 555 786 L550 780L550 780 L585 780C604 780 622 780 625 780 L630 780L630 780 L645 780L660 780L660 780 L736 775C779 773 817 773 821 776 C826 778 830 783 830 785 L830 790L830 790 L830 810C830 821 827 830 825 830 C822 830 820 832 820 835 L820 840L820 840 L797 834C785 831 771 829 767 829 L760 830"/>
    </g>
  </g>
  <g id="l5HruJ5gvHbXPidLRh40f3tj" fill="rgb(51,50,51)" stroke="rgb(51,50,51)" stroke-width="1" fill-rule="evenodd" style="transform: none;">
    <g>
      <path id="pZbcB5e5I" d="M790 1030 L795 1030C797 1030 811 1030 825 1030 C842 1030 850 1024 850 1011 C850 997 844 993 825 996 L800 1000L800 1000 L814 994C823 991 832 984 835 979 C838 974 847 970 855 970 L870 970L870 970 L875 997C878 1012 880 1028 880 1032 L880 1040L880 1040 L835 1040C810 1040 790 1037 790 1035 L790 1030"/>
      <path id="p1EOrLV9YD" d="M430 760 L432 761C433 762 448 764 465 766 C486 769 491 767 482 760 L470 750L470 750 L490 750C501 750 512 750 515 750 C517 750 540 750 565 750 L610 750L610 750 L604 760C601 765 605 770 614 770 C622 770 630 772 630 775 L630 780L630 780 L625 780C622 780 604 780 585 780 L550 780L550 780 L535 780C526 780 517 780 515 780 C512 780 507 780 505 780 L500 780L500 780 L473 780C458 780 449 783 453 786 C457 790 460 794 460 796 L460 800L460 800 L455 800C452 800 447 800 445 800 L440 800L440 800 L434 787C432 780 429 771 429 767 L430 760"/>
      <path id="pRwChlV2n" d="M830 790 L830 785C830 783 826 778 821 776 C817 773 779 773 736 775 L660 780L660 780 L685 770L710 760L710 750 L720 750 L775 750C805 750 830 751 830 754 C830 756 832 765 836 774 C839 782 839 790 836 790 L830 790"/>
      <path id="pAmRH7THU" d="M670 540 L679 540C684 540 691 535 695 529 C700 521 705 521 713 529 C719 535 725 540 727 540 L730 540L730 540 L735 546C737 550 737 555 735 558 C732 561 730 564 730 566 L730 570L730 570 L715 570C706 570 697 570 695 570 C692 570 687 570 685 570 L680 570L680 570 L675 570C673 570 668 566 665 561 C662 556 662 549 665 546 L670 540"/>
    </g>
  </g>
  <g id="l5rEjAyO1wkJBwhZEC3WCIGj" fill="rgb(66,66,66)" stroke="rgb(66,66,66)" stroke-width="1" fill-rule="evenodd" style="transform: none;">
    <g>
      <path id="pBxROz865" d="M790 990 L790 985C790 982 794 980 800 980 C805 980 810 973 810 965 C810 954 799 950 776 950 C758 950 740 952 736 955 L730 960L730 960 L707 954C695 951 681 949 677 949 L670 950L670 950 L650 950L630 950L630 950 L577 952C525 955 525 955 558 965 C576 970 588 978 585 982 L580 990L580 990 L535 990C510 990 487 990 485 990 C482 990 471 990 460 990 L440 990L440 990 L435 990C432 990 430 983 430 975 C430 968 427 954 423 945 C418 931 442 930 650 930 C857 930 881 931 876 945 C872 954 870 963 870 965 L870 970L870 970 L855 970C847 970 838 974 835 979 C832 984 823 991 814 994 L800 1000L800 996 790 1000 "/>
      <path id="pnOE7ITMO" d="M630 780 L630 775C630 772 622 770 614 770 C605 770 601 765 604 760 L610 750L610 750 L625 750L640 750L640 750 L657 753C667 755 679 756 685 754 C690 752 696 751 697 750 L700 750L710 750 L710 760 L685 770L660 780L660 780 L645 780L630 780"/>
      <path id="pmGhnDVKi" d="M430 760 L442 754C449 752 458 749 462 749 L470 750L470 750 L482 760C491 767 486 769 465 766 C448 764 433 762 432 761 L430 760"/>
      <path id="pyxG6wPZi" d="M800 550 L815 520L830 490L830 490 L830 484C830 480 835 480 842 483 C849 486 856 488 857 489 L860 490L860 490 L857 522C855 549 850 555 827 558 C812 559 800 558 800 555 L800 550"/>
    </g>
  </g>
  <g id="l2JttMFkUzL96J0wVnuXsSnj" fill="rgb(82,82,82)" stroke="rgb(82,82,82)" stroke-width="1" fill-rule="evenodd" style="transform: none;">
    <g>
      <path id="plQCnI4H4" d="M280 2420 L270 2400L260 2380L260 2380 L260 2365L260 2350L260 2350 L263 2350C265 2350 269 2352 273 2355 L280 2360L280 2360 L295 2364C303 2367 310 2376 310 2384 C310 2398 353 2400 675 2400 C875 2400 1040 2402 1040 2405 C1040 2407 1040 2412 1040 2415 L1040 2420L1040 2420 L1040 2425C1040 2427 869 2430 660 2430 C451 2430 280 2427 280 2425 L280 2420"/>
      <path id="p13YP0rHrW" d="M1310 2100 L1310 1605C1310 1332 1310 1107 1310 1105 C1310 1102 1310 866 1310 580 L1310 60L1310 60 L1310 40L1310 20L1310 20 L1317 14C1321 10 1326 322 1327 706 C1328 1090 1330 1561 1330 1752 L1330 2100L1330 2100 L1325 2100C1322 2100 1317 2100 1315 2100 L1310 2100"/>
      <path id="pcCrWYlVZ" d="M935 1635 L940 1630 L945 1630C947 1630 950 1627 950 1625 L950 1620L950 1620 L955 1620C957 1620 962 1620 965 1620 L970 1620L970 1620 L965 1640L960 1660L960 1660 L955 1660C952 1660 945 1660 940 1660 C934 1660 930 1655 930 1650 L930 1640"/>
      <path id="p4dxTdtas" d="M840 1210 L845 1203C847 1199 850 1195 850 1193 L850 1190L850 1190 L855 1190C857 1190 860 1187 860 1185 L860 1180L860 1180 L875 1180C883 1180 890 1182 890 1185 C890 1187 890 1192 890 1195 L890 1200L890 1200 L885 1200C882 1200 880 1202 880 1205 L880 1210L880 1210 L860 1210L840 1210"/>
      <path id="pP7xUmfHa" d="M780 1000 L767 994C760 992 751 989 747 989 L740 990L740 990 L735 980C732 975 730 969 730 965 L730 960L730 960 L736 955C740 952 758 950 776 950 C799 950 810 954 810 965 C810 973 805 980 800 980 C794 980 790 982 790 985 L790 990L790 1000 783 1000 "/>
      <path id="p2IvPrQce" d="M580 990 L585 982C588 978 576 970 558 965 C525 955 525 955 577 952 L630 950L630 950 L615 960C606 966 600 973 600 975 C600 977 600 982 600 985 L600 990L600 990 L595 990C592 990 587 990 585 990 L580 990"/>
      <path id="p1FXucgWjo" d="M420 860 L420 815C420 790 420 767 420 765 C420 762 420 744 420 725 L420 690L420 690 L426 690C430 690 434 692 436 695 L440 700L440 700 L440 720C440 738 446 740 525 740 C571 740 616 740 625 740 L640 740L640 743 640 746 L630 750 L625 750C622 750 617 750 615 750 L610 750L610 750 L565 750C540 750 517 750 515 750 C512 750 501 750 490 750 L470 750L470 750 L462 749C458 749 449 752 442 754 L430 760L430 760 L429 767C429 771 432 780 434 787 L440 800L440 803 443 810 L440 820 L440 825C440 827 440 832 440 835 L440 840L440 840 L430 850L420 860"/>
      <path id="pnIRyzWaN" d="M820 830 L825 810L830 790L830 790 L836 790C839 790 839 782 836 774 C832 765 830 756 830 754 C830 751 805 750 775 750 L720 750L710 750 710 743 L710 740 L725 740C733 740 742 740 745 740 C747 740 754 740 760 740 L770 740L770 740 L785 740C793 740 802 740 805 740 C807 740 814 740 820 740 L830 740L840 740 L840 745C840 747 842 750 845 750 L850 750L850 750 L855 760C858 765 856 786 849 805 C843 824 836 840 834 840 L830 840L830 843 820 836 "/>
      <path id="pjWbcCOSi" d="M420 620 L420 575C420 550 420 527 420 525 C420 522 420 504 420 485 L420 450L420 450 L433 450C442 450 445 458 442 475 C439 488 441 500 445 500 C449 500 457 493 463 484 C470 476 480 469 487 469 L500 470L500 470 L507 475C511 477 518 480 522 480 C526 480 550 480 575 480 L620 480L620 480 L635 485C643 488 650 495 650 499 C650 504 654 510 660 514 L670 520L670 520 L625 520C600 520 577 520 575 520 C572 520 561 520 550 520 L530 520L530 523 520 523 L510 520 L507 518C506 517 492 515 477 512 C462 510 450 511 450 514 L450 520L450 520 L445 560L440 600L440 600 L430 610L420 620"/>
      <path id="p1FMZmphZ9" d="M790 540 L790 534C790 530 787 524 784 519 C781 514 770 510 759 510 L740 510L740 510 L735 510C732 510 730 505 730 500 C730 494 752 490 780 490 L830 490L830 490 L815 520L800 550L798 550 793 550 "/>
    </g>
  </g>
  <g id="l50EK5zgDSxrPcFdPlYvqnYj" fill="rgb(92,92,92)" stroke="rgb(92,92,92)" stroke-width="1" fill-rule="evenodd" style="transform: none;">
    <g>
      <path id="p1B25oA9Eh" d="M420 1540 L420 1535C420 1532 420 1507 420 1480 L420 1430 650 1430 L880 1430L880 1430 L885 1430C887 1430 890 1435 890 1441 C890 1447 881 1450 870 1447 C859 1444 850 1443 850 1445 L850 1450L850 1450 L765 1450C718 1450 677 1450 675 1450 C672 1450 620 1450 560 1450 L450 1450L450 1450 L444 1450C441 1450 440 1466 441 1487 L445 1525 630 1527 C731 1529 825 1530 837 1530 L860 1530L860 1530 L870 1540L880 1550L880 1550 L805 1550C763 1550 726 1550 722 1550 C718 1550 648 1547 567 1545 L420 1540"/>
      <path id="pR4W31bZH" d="M410 1190 L409 1182C409 1178 410 1154 412 1130 L415 1085 637 1082 L860 1080L870 1080 L870 1085C870 1087 872 1090 875 1090 L880 1090L880 1090 L880 1101C880 1108 877 1110 873 1106 C869 1103 865 1100 863 1100 L860 1100L860 1100 L652 1102L445 1105 442 1135 C440 1151 439 1168 439 1172 L440 1180L440 1180 L430 1190L420 1200L421 1203 415 1200 "/>
      <path id="p13OQaMrkI" d="M420 1040 L425 1040C427 1040 430 1038 430 1036 C430 1034 432 1030 435 1026 L440 1020L440 1020 L495 1020C525 1020 552 1020 555 1020 C557 1020 569 1020 580 1020 L600 1020L600 1020 L600 1025C600 1027 604 1030 610 1030 C615 1030 620 1025 620 1020 C620 1014 631 1010 644 1010 C658 1010 690 1015 716 1022 C758 1033 763 1033 771 1017 L780 1000L783 1000 790 1000 L790 1010 L790 1015C790 1017 790 1022 790 1025 L790 1030L790 1030 L790 1035C790 1037 810 1040 835 1040 L880 1040L880 1040 L880 1045C880 1047 877 1050 875 1050 L870 1050L860 1050 L795 1050C759 1050 726 1050 722 1050 C718 1050 648 1047 567 1045 L420 1040"/>
      <path id="p1Fx3YnH4O" d="M420 860 L430 850L440 840L440 840 L460 850L480 860L480 860 L525 860C549 860 573 860 577 860 C581 860 624 858 672 855 L760 850L760 850 L760 845C760 842 760 837 760 835 L760 830L760 830 L767 829C771 829 785 831 797 834 L820 840L820 836 830 843 L830 850 L855 855C868 858 880 863 880 865 C880 868 880 872 880 875 L880 880L885 880 880 886 L870 890 L755 890C691 890 637 890 635 890 C632 890 623 890 615 890 L600 890L600 890 L577 890C565 890 523 889 485 887 C446 886 416 881 417 877 C418 873 420 867 420 865 L420 860"/>
      <path id="pvZPeoO93" d="M640 746 L640 743 L650 740 L665 740C673 740 682 740 685 740 C687 740 694 740 700 740 L710 740L710 743 710 750 L700 750 L697 750C696 751 690 752 685 754 C679 756 667 755 657 753 L640 750"/>
      <path id="pvHV4VML9" d="M600 700 L650 690L700 680L700 680 L795 680L890 680L890 680 L890 695C890 703 887 710 885 710 C882 710 877 710 875 710 L870 710L860 710 L737 704C670 702 611 699 607 699 L600 700"/>
      <path id="pxSRlktNN" d="M672 530 L666 520 L670 510 L660 510C654 510 650 505 650 500 C650 495 643 488 635 485 L620 480L620 480 L710 470L800 460L800 460 L810 460C815 460 828 460 839 460 C850 460 861 455 864 450 L870 440L870 440 L876 440C880 440 884 442 886 445 L890 450L890 450 L880 460L870 470L870 470 L865 480L860 490L860 490 L857 489C856 488 849 486 842 483 C835 480 830 480 830 484 L830 490L830 490 L780 490C752 490 730 494 730 500 C730 505 732 510 735 510 L740 510L740 510 L739 512C738 513 736 520 734 527 L730 540L730 540 L727 540C725 540 719 535 713 529 C705 521 700 521 695 529 C691 535 686 540 684 540 L680 540L673 540 672 530 "/>
    </g>
  </g>
  <g id="l5pTcBjm8euGX7VJviCn85Tj" fill="rgb(74,145,75)" stroke="rgb(74,145,75)" stroke-width="1" fill-rule="evenodd" style="transform: none;">
    <g style="transform: none;">
      <path id="p13LzBnjSY" d="M440 810 L440 805C440 802 442 800 445 800 L450 800L450 800 460 796 L470 800 L485 800L500 800L501 800 500 810 L490 810 L490 815C490 817 483 820 475 820 C466 820 460 817 460 815 C460 812 455 810 450 810 L440 810"/>
      <path id="pY8xXbMgg" d="M450 520 L450 513C450 510 464 510 482 513 C500 516 516 518 517 519 L520 520L520 520 L520 523C520 526 512 530 504 533 C495 537 481 540 474 540 C466 540 460 535 460 530 C460 524 457 520 455 520 L450 520"/>
    </g>
  </g>
  <g id="l7fcR53Hwptd07HFofpDYQXj" fill="rgb(101,101,101)" stroke="rgb(101,101,101)" stroke-width="1" fill-rule="evenodd" style="transform: none;">
    <g>
      <path id="pAzoScgjg" d="M1070 2400 L1070 2395C1070 2392 1063 2390 1055 2390 C1046 2390 1040 2383 1040 2375 L1040 2360L1036 2360 1040 2350 L1050 2350 L1050 1645C1050 1257 1050 937 1050 935 C1050 932 1050 788 1050 615 L1050 300L1050 300 L1060 290L1070 280L1070 280 L1075 317C1078 338 1080 358 1080 362 C1080 366 1080 799 1080 1325 L1080 2280L1080 2280 L1075 2280C1072 2280 1070 2292 1070 2308 C1070 2323 1073 2340 1077 2345 C1081 2350 1088 2358 1092 2362 L1100 2370L1100 2370 L1085 2385L1070 2400"/>
      <path id="p8YaI4UO1" d="M240 2360 L240 2100C240 1957 240 1492 240 1066 C240 393 241 291 255 276 L270 260L270 260 L280 260C286 260 288 268 285 280 C281 291 281 300 284 300 L290 300L290 300 L290 305C290 307 287 310 285 310 L280 310L280 310 L270 1330L260 2350L260 2350 L255 2360L250 2370L250 2370 L245 2370C242 2370 240 2367 240 2365 L240 2360"/>
      <path id="pkwvTAIVW" d="M1260 2160 L1265 2160C1267 2160 1270 2158 1270 2156 C1270 2154 1272 2150 1275 2146 L1280 2140L1280 2140 L1280 2135C1280 2132 1281 2130 1283 2130 C1285 2130 1292 2123 1298 2115 L1310 2100L1310 2100 L1315 2100C1317 2100 1322 2100 1325 2100 L1330 2100L1328 2100 1333 2110 L1330 2120 L1317 2137C1310 2147 1302 2157 1300 2160 C1297 2162 1291 2168 1287 2172 L1280 2180L1280 2180 L1270 2170L1260 2160"/>
      <path id="pzQvr5uLW" d="M360 1660 L360 1655C360 1652 360 1647 360 1645 C360 1642 366 1640 375 1640 L390 1640L390 1640 L405 1640C413 1640 422 1640 425 1640 C427 1640 481 1640 545 1640 L660 1640L660 1640 L660 1650C660 1655 669 1660 680 1660 C691 1660 700 1662 700 1665 L700 1670L700 1670 L617 1670C572 1670 495 1667 447 1665 L360 1660"/>
      <path id="psdHQolSb" d="M950 1620 L945 1430L940 1240L940 1240 L940 1220L940 1200L940 1200 L955 1220L970 1240L970 1240 L970 1380C970 1457 970 1522 970 1525 C970 1527 970 1550 970 1575 L970 1620L970 1620 L965 1620C962 1620 957 1620 955 1620 L950 1620"/>
      <path id="pIfcbtr8l" d="M420 1370 L414 1332C411 1311 409 1291 409 1287 L410 1280L410 1280 L420 1273C426 1270 433 1269 435 1272 C438 1274 440 1279 440 1283 L440 1290L440 1290 L440 1295C440 1297 440 1302 440 1305 C440 1307 440 1316 440 1325 L440 1340L440 1340 L440 1355C440 1363 437 1370 435 1370 C432 1370 427 1370 425 1370 L420 1370"/>
      <path id="pAWmi8SJt" d="M420 1200 L430 1190L440 1180L440 1180 L617 1185C715 1188 807 1190 822 1190 L850 1190L850 1190 L850 1193C850 1195 847 1199 845 1203 L840 1210L840 1210 L685 1210C599 1210 526 1210 522 1210 C518 1210 493 1208 467 1205 L420 1200"/>
      <path id="p12STAq0jm" d="M690 970 L683 965C679 962 675 960 673 960 L670 960L670 956 670 953 L680 950 L687 949C691 949 702 951 712 954 L730 960L730 960 L730 965C730 969 732 975 735 980 L740 990L740 990 L715 980L690 970"/>
      <path id="p19ChqFznB" d="M440 700 L436 695C434 692 430 690 426 690 L420 690L420 690 L552 684C625 682 688 679 692 679 L700 680L700 680 L650 690L600 700L600 700 L580 700C569 700 557 700 555 700 C552 700 525 700 495 700 L440 700"/>
      <path id="pAyF71FEa" d="M790 560 L790 555C790 552 792 550 795 550 L800 550L800 550 L800 555C800 558 812 559 827 558 C850 555 855 549 857 522 L860 490L860 490 L865 480L870 470L870 470 L870 477C870 481 868 504 865 527 L860 570L860 570 L852 570C848 570 832 568 817 565 L790 560"/>
      <path id="pdfyTe48O" d="M500 470 L590 460L680 450L680 450 L687 449C691 449 718 451 747 454 L800 460L800 460 L710 470L620 480L620 480 L575 480C550 480 526 480 522 480 C518 480 511 477 507 475 L500 470"/>
    </g>
  </g>
  <g id="l70ynVctEsdgAGQ1uQbM5Wlj" fill="rgb(114,114,114)" stroke="rgb(114,114,114)" stroke-width="1" fill-rule="evenodd" style="transform: none;">
    <g>
      <path id="p1G8SHWAyN" d="M380 2160 L380 2165C380 2167 394 2170 412 2170 C430 2171 439 2173 432 2176 C425 2179 420 2183 420 2185 L420 2190L420 2190 L415 2190C412 2190 396 2190 380 2190 C364 2190 348 2185 345 2181 C342 2176 347 2169 355 2166 C364 2162 373 2160 375 2160 L380 2160"/>
      <path id="pTVgqLolk" d="M910 2120 L914 2107C916 2100 918 2093 919 2092 L920 2090L920 2090 L935 2090L950 2090L950 2090 L955 2096C958 2100 958 2108 955 2114 C953 2120 951 2126 950 2127 L950 2130L950 2130 L935 2130L920 2130L910 2126 908 2120 "/>
      <path id="p1D83UPIoO" d="M360 2030 L355 2023C352 2019 350 2010 350 2003 C350 1995 361 1990 379 1990 C395 1990 421 1995 436 2001 C458 2010 461 2014 447 2017 C437 2019 430 2023 430 2025 L430 2030L430 2030 L395 2030L360 2030"/>
      <path id="pgnVWGIrX" d="M970 1240 L955 1220L940 1200L940 1200 L940 955L940 710L940 710 L945 710C947 710 950 638 950 550 C950 462 947 390 945 390 L940 390L940 390 L920 390L900 390L900 390 L637 392L375 395 372 1004 C370 1403 373 1617 379 1623 C385 1629 390 1635 390 1637 L390 1640L390 1640 L375 1640C366 1640 360 1642 360 1645 C360 1647 360 1652 360 1655 L360 1660L360 1660 L351 1664C346 1667 339 1662 336 1654 C332 1645 330 1358 330 1015 C329 423 330 392 348 376 C364 361 398 359 665 362 L965 365 967 802 L970 1240"/>
      <path id="pU7qGMv8N" d="M700 1670 L700 1665C700 1662 691 1660 680 1660 C669 1660 660 1655 660 1650 L660 1640L660 1640 L675 1640C683 1640 692 1640 695 1640 C697 1640 751 1640 815 1640 L930 1640L930 1640 L930 1650C930 1655 934 1660 940 1660 C945 1660 952 1660 955 1660 L960 1660L960 1660 L952 1665C948 1667 941 1670 937 1670 C933 1670 878 1670 815 1670 L700 1670"/>
      <path id="pPr1OuL8m" d="M870 1380 L865 1373C862 1369 860 1362 860 1358 C860 1353 860 1347 860 1345 L860 1340L860 1340 L861 1337C861 1336 864 1328 866 1319 C868 1310 868 1300 865 1297 L860 1290L860 1290 L860 1285C860 1282 860 1275 860 1270 C860 1264 864 1260 870 1260 L880 1260L880 1260 L887 1265C891 1268 896 1289 898 1311 C899 1333 895 1357 889 1365 C882 1373 875 1380 873 1380 L870 1380"/>
      <path id="paTnn2wAD" d="M900 930 L900 978C900 1004 897 1029 893 1033 C889 1037 885 1040 883 1040 L880 1040L880 1040 L880 1032C880 1028 878 1012 875 997 L870 970L870 970 L870 965C870 963 872 954 876 945 C881 931 857 930 650 930 C442 930 418 931 423 945 C427 954 430 968 430 975 C430 983 432 990 435 990 L440 990L440 990 L440 1005L440 1020L440 1020 L435 1026C432 1030 430 1034 430 1036 C430 1038 427 1040 425 1040 L420 1040L420 1040 L415 1040C412 1040 410 1012 410 979 L410 919 652 922 C785 924 896 926 897 927 L900 930"/>
      <path id="plENaXimb" d="M600 990 L600 985C600 982 600 977 600 975 C600 973 606 966 615 960 L630 950L630 950 L650 950L670 950L670 953 670 956 L660 960 L645 970L630 980L630 980 L627 980C626 981 619 983 612 985 L600 990"/>
      <path id="p14hvP0NFs" d="M880 880 L880 875C880 872 880 867 880 865 C880 862 868 860 855 860 C841 860 830 855 830 850 L830 840L830 840 L834 840C836 840 843 824 849 805 C856 786 858 765 855 760 L850 750L850 750 L860 760L870 770L870 770 L870 798C870 815 876 830 885 833 C893 836 900 844 900 849 L900 860L900 860 L895 866C892 870 890 874 890 876 C890 878 887 880 885 880 L880 880"/>
      <path id="p1D1G9Yi5I" d="M417 627 L423 620 L430 620 L435 616C437 614 440 610 440 606 L440 600L440 600 L442 602C443 603 537 605 649 607 C824 610 855 608 861 595 L870 580L870 580 L885 580L900 580L900 580 L900 600L900 620L900 620 L894 627C890 631 886 638 883 642 C880 646 778 650 656 650 C533 650 430 647 426 643 C423 639 420 635 420 633 L420 630"/>
      <path id="pcPUm349j" d="M420 450 L457 444C478 441 498 439 502 439 L510 440L510 440 L517 445C521 447 528 450 532 450 C536 450 571 450 610 450 L680 450L680 450 L590 460L500 470L500 470 L487 469C480 469 470 476 463 484 C457 493 449 500 445 500 C441 500 439 488 442 475 C445 458 442 450 433 450 L420 450"/>
    </g>
  </g>
  <g id="l4Nutr2Hst31XjwKnKysCGkj" fill="rgb(123,123,123)" stroke="rgb(123,123,123)" stroke-width="1" fill-rule="evenodd" style="transform: none;">
    <g>
      <path id="pg88SMiUJ" d="M250 2370 L255 2360L260 2350L260 2350 L270 1330L280 310L280 310 L280 830C280 1116 280 1352 280 1355 C280 1357 280 1582 280 1855 L280 2350L283 2350 280 2356 L270 2360 L270 2355C270 2352 267 2350 265 2350 L260 2350L260 2350 L260 2365L260 2380L260 2380 L255 2380C252 2380 250 2377 250 2375 L250 2370"/>
      <path id="p0B7fETv4" d="M1080 2280 L1084 2280C1086 2280 1090 2290 1092 2302 C1095 2314 1098 2322 1099 2320 C1099 2317 1108 2308 1117 2300 C1126 2292 1162 2257 1197 2222 L1260 2160L1260 2160 L1270 2170L1280 2180L1280 2180 L1205 2256C1163 2298 1130 2335 1130 2338 C1130 2341 1123 2347 1115 2352 C1106 2357 1100 2363 1100 2365 L1100 2370L1100 2370 L1092 2362C1088 2358 1081 2350 1077 2345 C1073 2340 1070 2323 1070 2308 C1070 2292 1072 2280 1075 2280 L1080 2280"/>
      <path id="p15qAW8ma4" d="M920 2090 L919 2092C918 2093 916 2100 914 2107 L910 2120L910 2120 L902 2120C898 2120 886 2119 877 2117 C867 2116 859 2110 859 2105 C859 2099 869 2093 882 2092 C894 2090 908 2089 912 2089 L920 2090"/>
      <path id="pg5cbmos5" d="M400 2080 L400 2085C400 2087 414 2090 431 2090 C449 2090 460 2093 456 2096 C453 2100 450 2104 450 2106 L450 2110L450 2110 L442 2110C438 2110 414 2109 390 2107 C365 2106 345 2100 347 2095 C348 2089 360 2083 374 2082 L400 2080"/>
      <path id="p1EX7SY7IC" d="M880 1550 L870 1540L860 1530L860 1530 L860 1526C860 1524 862 1508 866 1491 C869 1474 869 1460 866 1460 L860 1460L860 1450 L854 1445C850 1443 857 1443 869 1446 C881 1449 890 1447 890 1441 C890 1435 887 1430 885 1430 L880 1430L880 1426 880 1425 L885 1425 888 1431 L890 1430 L895 1457C898 1472 900 1488 900 1492 C900 1496 900 1506 900 1515 L900 1530L900 1530 L895 1536C892 1540 890 1544 890 1546 C890 1548 887 1550 885 1550 L880 1550"/>
      <path id="p6VY6yYPk" d="M440 1290 L440 1283C440 1279 438 1274 435 1272 C433 1269 426 1270 420 1273 L410 1280L410 1270 415 1265 L420 1260 L437 1255C447 1252 500 1252 555 1255 C610 1257 656 1259 657 1259 L660 1260L660 1260 L660 1263C660 1265 657 1269 655 1273 L650 1280L650 1280 L645 1280C642 1280 602 1280 555 1280 C509 1280 464 1282 455 1285 L440 1290"/>
      <path id="pnqzfWjx3" d="M887 1205 L890 1200 L890 1190 L882 1185C878 1182 871 1180 867 1180 L860 1180L860 1180 L860 1177C861 1176 862 1170 864 1165 C865 1159 865 1144 863 1132 L860 1110L857 1107 860 1103 L870 1100 L870 1105C870 1107 872 1110 875 1110 C877 1110 880 1105 880 1100 L880 1090L880 1090 L875 1090C872 1090 870 1087 870 1085 C870 1082 872 1080 875 1080 L880 1080L881 1081 880 1090 L890 1090 L890 1095C890 1097 892 1100 895 1100 C897 1100 900 1122 900 1150 C900 1177 897 1200 895 1200 L890 1200L890 1200 885 1205 L880 1206 887 1205 "/>
      <path id="ptGaawmYP" d="M870 770 L860 760L850 750L850 750 L845 750C842 750 840 747 840 745 L840 740L850 740 L860 725L870 710L870 710 L875 710C877 710 882 710 885 710 C887 710 890 703 890 695 L890 680L900 680 L905 720L910 760L910 760 L905 761C902 761 895 763 890 765 C884 766 877 768 875 768 L870 770"/>
      <path id="ppAvOlkPR" d="M860 570 L865 527C868 504 870 481 870 477 L870 470L870 470 L880 460L890 450L893 450 900 453 L900 460 L900 470C900 475 900 482 900 485 C900 487 900 510 900 535 L900 580L900 580 L885 580L870 580L870 580 L865 580C862 580 860 577 860 575 L860 570"/>
      <path id="p58lk4r8D" d="M730 570 L730 566C730 564 732 561 735 558 C737 555 737 550 735 546 L730 540L730 540 L734 527C736 520 738 513 739 512 L740 510L740 510 L760 510C771 510 782 515 785 522 C787 529 790 538 790 542 L790 550L793 550 788 560 L780 560 L780 545C780 536 773 530 766 530 C758 530 752 537 753 546 C754 555 749 564 742 566 L730 570"/>
      <path id="pcCYm5RtV" d="M270 260 L270 255C270 252 272 250 275 250 L280 250L275 245 283 240 L290 240 L293 240C295 240 299 242 303 245 L310 250L310 250 L685 260L1060 270L1060 270 L1065 270C1067 270 1070 272 1070 275 L1070 280L1070 280 L1060 290L1050 300L1050 300 L1005 300C980 300 957 300 955 300 C952 300 801 300 620 300 L290 300L290 300 L284 300C281 300 281 291 285 280 C288 268 286 260 280 260 L270 260"/>
    </g>
  </g>
  <g id="l5wBgt7s3zGmpysDwnVSA0Ej" fill="rgb(134,134,134)" stroke="rgb(134,134,134)" stroke-width="1" fill-rule="evenodd" style="transform: none;">
    <g>
      <path id="peyLGcA9u" d="M1040 2420 L1040 2415C1040 2412 1040 2407 1040 2405 C1040 2402 875 2400 675 2400 C353 2400 310 2398 310 2384 C310 2376 303 2367 295 2364 L280 2360L280 2356 283 2350 L290 2350 L535 2350C669 2350 782 2350 785 2350 C787 2350 844 2350 910 2350 L1030 2350L1030 2350 L1030 2355C1030 2357 1032 2360 1035 2360 L1040 2360L1040 2360 L1040 2375C1040 2383 1046 2390 1055 2390 C1063 2390 1070 2392 1070 2395 L1070 2400L1070 2400 L1055 2410L1040 2420"/>
      <path id="pmzjiGASY" d="M430 2290 L389 2290C360 2290 349 2286 352 2277 C354 2270 370 2263 388 2261 C410 2259 421 2263 425 2274 L430 2290"/>
      <path id="p10ZerzQMY" d="M880 2210 L880 2206C880 2204 877 2200 874 2197 C871 2194 882 2188 899 2185 C915 2181 934 2181 939 2184 L950 2190L950 2190 L950 2200C950 2205 938 2210 925 2210 C911 2210 895 2210 890 2210 L880 2210"/>
      <path id="p1MysBaGz" d="M1290 80 L1300 70L1310 60L1310 60 L1310 580C1310 866 1310 1102 1310 1105 C1310 1107 1310 1332 1310 1605 L1310 2100L1310 2100 L1298 2115C1292 2123 1285 2130 1283 2130 C1281 2130 1280 2132 1280 2135 L1280 2140L1280 2140 L1277 2140C1275 2140 1268 2134 1262 2128 C1255 2121 1250 2107 1250 2098 C1250 2086 1257 2080 1269 2080 C1279 2080 1290 2085 1293 2092 C1296 2099 1297 1650 1296 1095 C1295 539 1293 83 1292 82 L1290 80"/>
      <path id="pDoX8gSyy" d="M870 1920 L909 1920C931 1920 951 1924 954 1929 C957 1934 960 1940 960 1944 L960 1950L960 1950 L950 1950C944 1950 917 1950 890 1950 C862 1950 840 1945 840 1940 C840 1935 846 1928 855 1925 L870 1920"/>
      <path id="pAkkj6YTT" d="M360 1900 L375 1900C383 1900 392 1900 395 1900 C397 1900 404 1900 410 1900 L420 1900L420 1900 L420 1905C420 1907 427 1910 437 1910 C450 1910 451 1912 442 1922 C435 1928 430 1935 430 1937 L430 1940L430 1940 L422 1940C418 1940 401 1939 385 1937 C368 1936 355 1929 356 1922 C356 1915 357 1907 358 1905 L360 1900"/>
      <path id="ptrvFG00e" d="M360 1820 L375 1820C383 1820 392 1820 395 1820 C397 1820 404 1820 410 1820 L420 1820L420 1820 L420 1825C420 1827 427 1830 436 1830 C445 1830 450 1833 446 1836 C443 1840 440 1844 440 1846 L440 1850L440 1850 L437 1851C436 1852 415 1853 390 1853 C365 1854 345 1850 342 1843 C340 1837 343 1829 349 1826 L360 1820"/>
      <path id="pydG0QCbX" d="M882 1845 C866 1831 868 1830 907 1830 C949 1830 963 1842 935 1853 C912 1863 901 1861 882 1845 "></path>
      <path id="p1A7DcgjQl" d="M880 1780 L885 1780C887 1780 893 1779 897 1779 C901 1779 897 1772 887 1764 L870 1750L870 1750 L880 1745L890 1740L890 1740 L922 1742C947 1744 955 1749 955 1765 C955 1780 947 1785 917 1788 C896 1789 880 1788 880 1785 L880 1780"/>
      <path id="pAow7K8FO" d="M360 1770 L359 1767C358 1766 356 1760 354 1754 C351 1748 351 1740 354 1736 L360 1730L360 1730 L365 1730C367 1730 372 1730 375 1730 C377 1730 386 1730 395 1730 L410 1730L410 1730 L410 1735C410 1737 420 1740 434 1740 C447 1740 461 1744 465 1750 C468 1755 456 1760 435 1760 C416 1760 400 1762 400 1765 L400 1770L400 1770 L380 1770L360 1770"/>
      <path id="phruaCQS0" d="M420 1370 L425 1370C427 1370 432 1370 435 1370 C437 1370 440 1363 440 1355 L440 1340L440 1340 L445 1340C447 1340 450 1342 450 1345 C450 1347 454 1350 460 1350 C465 1350 472 1350 475 1350 L480 1350L480 1350 L490 1365C496 1373 498 1380 495 1380 C492 1380 490 1382 490 1385 L490 1390L490 1390 L480 1390C474 1390 467 1390 465 1390 C462 1390 453 1390 445 1390 L430 1390L425 1385 425 1380 "/>
      <path id="p18aEOQHQS" d="M650 1280 L655 1273C657 1269 660 1265 660 1263 L660 1260L660 1260 L692 1255C710 1252 728 1250 732 1250 L740 1250L740 1250 L792 1247C821 1246 851 1245 860 1246 C868 1247 876 1248 877 1249 L880 1250L880 1253 880 1256 L870 1260 L865 1275L860 1290L850 1290 L840 1290 L752 1284C704 1281 661 1279 657 1279 L650 1280"/>
      <path id="p11KzR1cbQ" d="M600 1020 L605 1020C607 1020 610 1015 610 1010 C610 1004 605 1000 600 1000 C594 1000 590 997 590 995 L590 990L590 993 600 986 L610 990 L616 985C620 982 624 980 626 980 L630 980L630 980 L630 985C630 987 630 992 630 995 C630 997 643 1000 660 1000 C676 1000 690 995 690 990 C690 984 690 977 690 975 L690 970L690 970 L715 980L740 990L740 990 L747 989C751 989 760 992 767 994 L780 1000L780 1000 L771 1017C763 1033 758 1033 716 1022 C690 1015 658 1010 644 1010 C631 1010 620 1014 620 1020 C620 1025 615 1030 610 1030 C604 1030 600 1027 600 1025 L600 1020"/>
      <path id="p1FrftaaxM" d="M900 860 L900 849C900 844 893 836 885 833 C876 830 870 815 870 798 L870 770L870 770 L875 768C877 768 884 766 890 765 C895 763 902 761 905 761 L910 760L910 760 L910 767C910 771 908 794 905 817 L900 860"/>
      <path id="p1EMouNmFB" d="M440 700 L495 700C525 700 552 700 555 700 C557 700 569 700 580 700 L600 700L600 700 L607 699C611 699 670 702 737 704 L860 710L860 710 L815 710C790 710 767 710 765 710 C762 710 755 710 750 710 L740 710L740 710 L675 710C640 710 608 714 605 720 C601 726 624 730 669 730 C708 730 742 730 745 730 L750 730L760 730 765 735 L770 740 L760 740C754 740 747 740 745 740 C742 740 733 740 725 740 L710 740L710 740 L675 740L640 740L640 740 L625 740C616 740 571 740 525 740 C446 740 440 738 440 720 L440 700"/>
      <path id="p13HWU4IOc" d="M940 700 L940 635C940 599 940 567 940 565 C940 562 940 542 940 520 L940 480L940 480 L940 435L940 390L940 390 L945 437C948 463 950 488 950 492 C950 496 950 547 950 605 L950 710L943 710 940 702 "/>
      <path id="pX6dkw4FQ" d="M900 580 L900 535C900 510 900 487 900 485 C900 482 900 473 900 465 L900 450L900 453 905 450 L910 460 L910 467C910 471 908 507 905 547 L900 620L900 620 L900 600L900 580"/>
      <path id="pu6hZI1MS" d="M530 520 L550 520C561 520 572 520 575 520 C577 520 600 520 625 520 L670 520L670 520 L670 525C670 527 670 532 670 535 L670 540L670 540 L665 546C662 549 662 556 665 561 C668 566 673 570 675 570 L680 570L680 570 L680 575C680 579 674 579 667 577 C660 575 653 564 651 552 C649 533 644 532 595 537 C561 540 540 538 536 531 L530 520"/>
      <path id="p1EsDbHEB5" d="M800 460 L747 454C718 451 691 449 687 449 L680 450L680 450 L610 450C571 450 536 450 532 450 C528 450 521 447 517 445 L510 440L510 440 L640 440C711 440 772 440 775 440 C777 440 800 440 825 440 L870 440L870 440 L864 450C861 455 850 460 839 460 C828 460 815 460 810 460 L800 460"/>
    </g>
  </g>
  <g id="l1TKedl56Apwp7kp3PMnvISj" fill="rgb(143,143,143)" stroke="rgb(143,143,143)" stroke-width="1" fill-rule="evenodd" style="transform: none;">
    <g>
      <path id="p15UIY3oJn" d="M1080 2280 L1080 1325C1080 799 1080 366 1080 362 C1080 358 1078 338 1075 317 L1070 280L1070 280 L1070 275C1070 272 1067 270 1065 270 L1060 270L1060 270 L1075 255L1090 240L1090 240 L1096 235C1100 232 1108 230 1115 230 C1121 230 1152 200 1183 165 L1240 100L1240 100 L1265 90L1290 80L1290 80 L1292 82C1293 83 1295 539 1296 1095 C1297 1650 1296 2099 1293 2092 C1290 2085 1279 2080 1269 2080 C1257 2080 1250 2086 1250 2098 C1250 2107 1255 2121 1262 2128 C1268 2134 1275 2140 1277 2140 L1280 2140L1280 2140 L1275 2146C1272 2150 1270 2154 1270 2156 C1270 2158 1267 2160 1265 2160 L1260 2160L1260 2160 L1197 2222C1162 2257 1126 2292 1117 2300 C1108 2308 1099 2317 1099 2320 C1098 2322 1095 2314 1092 2302 C1090 2290 1086 2280 1084 2280 L1080 2280"/>
      <path id="pHPmGl4Or" d="M870 2250 L905 2250L940 2250L940 2250 L940 2254C940 2256 944 2261 950 2265 C955 2268 957 2275 954 2280 C951 2285 926 2290 899 2290 C863 2290 850 2286 850 2275 C850 2268 854 2259 860 2255 L870 2250"/>
      <path id="pA0QSF2im" d="M420 2190 L420 2185C420 2183 425 2179 432 2176 C439 2173 430 2171 412 2170 C394 2170 380 2167 380 2165 L380 2160L380 2160 L427 2160C453 2160 485 2163 497 2166 C510 2169 519 2177 517 2183 C515 2189 498 2196 480 2198 C462 2199 441 2198 434 2195 L420 2190"/>
      <path id="pP46r6bPp" d="M490 1390 L490 1385C490 1382 492 1380 495 1380 C498 1380 496 1373 490 1365 L480 1350L480 1350 L525 1350C549 1350 573 1350 577 1350 C581 1350 644 1347 717 1345 L850 1340L860 1340 L860 1345C860 1347 860 1353 860 1358 C860 1362 862 1369 865 1373 L870 1380L870 1380 L812 1385C780 1388 731 1390 702 1390 L650 1390L650 1390 L630 1390C619 1390 607 1390 605 1390 C602 1390 575 1390 545 1390 L490 1390"/>
      <path id="pMm6f1Hm0" d="M420 1250 L435 1245C444 1242 478 1240 510 1240 C543 1240 572 1240 575 1240 L580 1240L580 1240 L587 1239C591 1239 627 1241 667 1244 L740 1250L740 1250 L732 1250C728 1250 710 1252 692 1255 L660 1260L660 1260 L657 1259C656 1259 610 1257 555 1255 C500 1252 447 1252 437 1255 L420 1260"/>
    </g>
  </g>
  <g id="l5hgWRQVwJcvoNu4QXTNMl0j" fill="rgb(127,182,128)" stroke="rgb(127,182,128)" stroke-width="1" fill-rule="evenodd" style="transform: none;">
    <g>
      <path id="p8ziHbfyC" d="M440 840 L440 830 L440 825C440 822 440 817 440 815 L440 810L440 810 L450 810C455 810 460 812 460 815 C460 817 466 820 475 820 C483 820 490 817 490 815 L490 810L501 810 503 820 L500 820 L490 840L480 860L480 860 L465 850L450 840"/>
    </g>
  </g>
  <g id="lxBHz0Mc1OKKR2RaqgoQ6jj" fill="rgb(151,151,151)" stroke="rgb(151,151,151)" stroke-width="1" fill-rule="evenodd" style="transform: none;">
    <g>
      <path id="pYtZOMDlY" d="M470 2260 L477 2265C481 2268 486 2275 488 2280 C490 2285 480 2290 465 2290 C451 2290 437 2290 435 2290 L430 2290L431 2290 430 2296 L420 2300 L410 2300C404 2300 386 2300 369 2300 C343 2300 339 2296 341 2277 C343 2262 353 2253 368 2251 C380 2249 408 2251 430 2254 L470 2260M430 2290 L389 2290C360 2290 349 2286 352 2277 C354 2270 370 2263 388 2261 C410 2259 421 2263 425 2274 L430 2290"/>
      <path id="p0HelVPsn" d="M870 2170 L905 2170C924 2170 942 2170 945 2170 L950 2170L950 2170 L950 2175C950 2177 950 2182 950 2185 L950 2190L950 2190 L939 2184C934 2181 915 2181 899 2185 C882 2188 871 2194 874 2197 C877 2200 880 2204 880 2206 L880 2210L880 2210 L875 2210C872 2210 862 2210 853 2210 C838 2210 838 2208 853 2190 L870 2170"/>
      <path id="pNuTMsHao" d="M840 2130 L830 2110L820 2090L820 2090 L830 2090C835 2090 840 2087 840 2085 C840 2082 864 2080 895 2080 C925 2080 950 2082 950 2085 L950 2090L950 2090 L935 2090L920 2090L920 2090 L912 2089C908 2089 894 2090 882 2092 C869 2093 859 2099 859 2105 C859 2110 867 2116 877 2117 C886 2119 898 2120 902 2120 L910 2120L908 2120 910 2126 L900 2130 L890 2130C884 2130 877 2130 875 2130 C872 2130 863 2130 855 2130 L840 2130"/>
      <path id="pTSdHMrj2" d="M450 2110 L450 2106C450 2104 453 2100 456 2096 C460 2093 449 2090 431 2090 C414 2090 400 2087 400 2085 L400 2080L400 2080 L447 2080C473 2080 501 2084 508 2089 C516 2093 519 2102 515 2108 C511 2114 498 2120 486 2120 C473 2120 460 2117 456 2115 L450 2110"/>
      <path id="pftEa88dz" d="M430 2030 L430 2025C430 2023 437 2019 447 2017 C461 2014 458 2010 436 2001 C421 1995 395 1990 379 1990 C361 1990 350 1995 350 2003 C350 2010 352 2019 355 2023 L360 2030L360 2030 L350 2035C345 2037 338 2031 335 2020 C331 2009 331 1995 334 1990 C338 1984 369 1980 405 1980 C440 1980 480 1985 494 1991 C508 1997 520 2009 520 2016 C520 2023 508 2032 494 2035 C481 2039 460 2039 449 2036 L430 2030"/>
      <path id="pJaFM26GR" d="M807 2030 C784 2011 821 1999 895 2002 C944 2004 964 2008 962 2017 C959 2033 825 2044 807 2030 "></path>
      <path id="pdyoY542L" d="M430 1930 L434 1930C436 1930 441 1925 445 1920 C448 1914 444 1910 435 1910 C427 1910 420 1907 420 1905 L420 1900L420 1900 L449 1900C465 1900 485 1902 494 1906 C506 1910 507 1915 499 1926 C492 1933 479 1940 468 1940 C458 1940 447 1940 445 1940 L440 1940L440 1943 430 1936 "/>
      <path id="p5KG3Ps4J" d="M440 1850 L440 1846C440 1844 443 1840 446 1836 C450 1833 445 1830 436 1830 C427 1830 420 1827 420 1825 L420 1820L420 1820 L435 1820C443 1820 452 1820 455 1820 C457 1820 464 1820 470 1820 L480 1820L480 1820 L491 1828C499 1835 496 1841 482 1848 C471 1854 460 1857 457 1854 C455 1852 450 1850 446 1850 L440 1850"/>
      <path id="p13MB6gWF5" d="M840 1780 L840 1777C840 1775 834 1768 828 1762 C818 1752 821 1750 843 1750 L870 1750L870 1750 L887 1764C897 1772 901 1779 897 1779 C893 1779 887 1780 885 1780 L880 1780L880 1780 L860 1780L840 1780"/>
      <path id="p3CpfDkKg" d="M630 980 L650 970L670 960L670 960 L673 960C675 960 679 962 683 965 L690 970L690 970 L690 975C690 977 690 984 690 990 C690 995 676 1000 660 1000 C643 1000 630 997 630 995 C630 992 630 987 630 985 L630 980"/>
      <path id="pnhJK9q76" d="M745 715 L745 725 L750 730 L745 730C742 730 708 730 669 730 C624 730 601 726 605 720 C608 714 640 710 675 710 L740 710"/>
      <path id="prd6Qz9kn" d="M310 210 L310 205C310 202 312 200 315 200 C317 200 333 186 350 170 L380 140L380 140 L385 140C387 140 390 137 390 135 C390 132 394 130 400 130 C405 130 410 132 410 135 L410 140L410 140 L382 169C367 185 353 199 352 199 C351 199 347 200 345 200 C342 200 340 201 340 203 C340 205 337 209 335 213 L330 220L330 220 L320 215L310 210"/>
      <path id="p1BgY7sued" d="M410 110 L414 102C416 98 427 84 439 72 L460 50L460 50 L475 50C483 50 490 52 490 55 C490 57 490 62 490 65 L490 70L490 70 L470 86C459 95 450 104 450 105 C450 105 447 109 445 113 L440 120L440 120 L425 115L410 110"/>
    </g>
  </g>
  <g id="l3OM3XwA621IzSe1wtFab9yj" fill="rgb(161,161,161)" stroke="rgb(161,161,161)" stroke-width="1" fill-rule="evenodd" style="transform: none;">
    <g>
      <path id="p1BdGvJkQk" d="M870 2250 L860 2255C854 2259 850 2268 850 2275 C850 2286 863 2290 899 2290 C926 2290 951 2285 954 2280 C957 2275 955 2268 950 2265 C944 2261 940 2256 940 2254 L940 2250L940 2250 L952 2253C959 2255 966 2266 968 2278 C970 2297 966 2300 933 2300 C912 2301 872 2300 845 2300 C817 2299 791 2295 786 2293 C782 2290 786 2279 795 2269 C805 2258 825 2250 841 2250 L870 2250"/>
      <path id="p1FV0JuI0V" d="M430 2290 L435 2290C437 2290 451 2290 465 2290 C480 2290 490 2285 488 2280 C486 2275 481 2268 477 2265 L470 2260L470 2260 L473 2254C475 2251 489 2251 503 2255 C518 2259 530 2267 530 2275 C530 2282 522 2290 514 2293 C505 2297 487 2300 474 2300 C460 2300 447 2300 445 2300 L440 2300L430 2296 431 2290 "/>
      <path id="pyKx6hPlX" d="M870 2170 L853 2190C838 2208 838 2210 853 2210 C862 2210 872 2210 875 2210 L880 2210L880 2210 L890 2210C895 2210 911 2210 925 2210 C938 2210 950 2205 950 2200 L950 2190L950 2190 L950 2185C950 2182 950 2177 950 2175 L950 2170L950 2170 L957 2175C961 2178 966 2190 968 2200 C971 2218 965 2219 903 2219 C865 2219 828 2215 821 2210 C813 2205 809 2194 813 2186 C816 2177 830 2170 844 2170 L870 2170"/>
      <path id="pHK3ygFXV" d="M840 2130 L833 2130C829 2130 815 2122 801 2113 C779 2099 778 2096 794 2087 C803 2082 813 2080 815 2084 L820 2090L820 2090 L830 2110L840 2130L840 2130 L875 2130L910 2130L910 2130 L930 2130L950 2130L950 2130 L962 2134C969 2136 944 2138 907 2139 C870 2139 840 2137 840 2135 L840 2130"/>
      <path id="pNZfb8eFM" d="M1330 2100 L1330 1752C1330 1561 1328 1090 1327 706 C1326 322 1321 10 1317 14 L1310 20L1310 20 L1300 20C1294 20 1293 26 1296 35 C1299 43 1299 50 1296 50 L1290 50L1290 50 L1290 46C1290 44 1287 40 1283 36 C1279 33 1117 30 923 30 L570 30L570 30 L547 30C534 30 517 39 510 50 C502 61 494 70 492 70 L490 70L490 70 L490 65C490 62 490 57 490 55 C490 52 483 50 475 50 L460 50L460 50 L460 45C460 42 463 40 466 40 C470 40 481 31 491 20 L510 0L510 0 L665 0C750 0 822 0 825 0 C827 0 944 0 1085 0 L1340 0L1340 0 L1340 195C1340 302 1340 392 1340 395 C1340 397 1340 784 1340 1255 L1340 2110L1333 2110 1328 2100 "/>
      <path id="pgCqeqldD" d="M870 1920 L855 1925C846 1928 840 1935 840 1940 C840 1945 862 1950 890 1950 C917 1950 944 1950 950 1950 L960 1950L960 1950 L960 1955C960 1958 920 1959 872 1957 C802 1955 785 1951 785 1940 C785 1929 797 1924 827 1922 L870 1920"/>
      <path id="p123xrvHyj" d="M360 1900 L358 1905C357 1907 356 1915 356 1922 C355 1929 368 1936 385 1937 C401 1939 418 1940 422 1940 L430 1940L430 1936 440 1943 L440 1950 L432 1950C428 1950 404 1949 380 1947 C341 1945 334 1941 331 1922 C329 1907 333 1900 344 1900 L360 1900"/>
      <path id="pr50eSNrE" d="M877 1872 C830 1860 778 1834 786 1826 C794 1818 954 1817 962 1825 C965 1828 966 1839 963 1850 C959 1873 922 1883 877 1872 M882 1845 C866 1831 868 1830 907 1830 C949 1830 963 1842 935 1853 C912 1863 901 1861 882 1845 "/>
      <path id="pxX8fug1N" d="M360 1820 L349 1826C343 1829 340 1837 342 1843 C345 1850 365 1854 390 1853 C415 1853 436 1852 437 1851 L440 1850L440 1850 L446 1850C450 1850 455 1852 457 1854 C460 1857 471 1854 482 1848 C496 1841 499 1835 491 1828 L480 1820L480 1820 L501 1822C513 1823 525 1829 526 1835 C528 1841 518 1851 504 1858 C490 1864 445 1870 404 1870 C331 1870 330 1869 330 1845 C330 1829 335 1820 345 1820 L360 1820"/>
      <path id="p19aWPBFtx" d="M595 1847 C588 1814 587 1815 613 1786 C627 1768 642 1761 652 1765 C666 1770 666 1774 648 1804 C638 1822 629 1842 629 1848 C630 1871 600 1870 595 1847 "/>
      <path id="pmrCw70yA" d="M890 1740 L880 1745L870 1750L870 1750 L843 1750C821 1750 818 1752 828 1762 C834 1768 840 1775 840 1777 L840 1780L840 1780 L830 1780C825 1780 814 1777 805 1773 C796 1770 790 1762 792 1756 C794 1750 817 1743 843 1742 L890 1740"/>
      <path id="p4yNTC5Ov" d="M360 1730 L354 1736C351 1740 351 1748 354 1754 C356 1760 358 1766 359 1767 L360 1770L360 1770 L352 1770C348 1770 339 1767 332 1765 C325 1762 320 1753 320 1745 C320 1736 328 1730 340 1730 L360 1730"/>
      <path id="pc78uiQCR" d="M400 1770 L400 1765C400 1762 416 1760 435 1760 C456 1760 468 1755 465 1750 C461 1744 447 1740 434 1740 C420 1740 410 1737 410 1735 L410 1730L410 1730 L457 1732C491 1734 505 1739 505 1750 C505 1760 492 1765 460 1767 C435 1769 411 1770 407 1770 L400 1770"/>
      <path id="pfKRlhHqh" d="M420 1430 L420 1423C420 1419 422 1414 425 1411 C427 1408 430 1402 430 1398 L430 1390L430 1390 L445 1390C453 1390 462 1390 465 1390 C467 1390 474 1390 480 1390 L490 1390L490 1390 L545 1390C575 1390 602 1390 605 1390 C607 1390 619 1390 630 1390 L650 1390L650 1390 L622 1397L595 1405 628 1412 C647 1416 700 1420 746 1420 C792 1420 841 1420 855 1420 L880 1420L880 1425 880 1426 L870 1430 L645 1430L420 1430 420 1480 C420 1507 420 1532 420 1535 L420 1540L420 1540 L415 1540C412 1540 410 1515 410 1485 C410 1454 412 1430 415 1430 L420 1430"/>
      <path id="p1BcIQWJDq" d="M450 1450 L449 1457C449 1461 450 1474 452 1485 C454 1504 463 1505 647 1507 C839 1510 840 1510 849 1487 C854 1475 859 1463 859 1462 L860 1460L860 1460 L866 1460C869 1460 869 1474 866 1491 C862 1508 860 1524 860 1526 L860 1530L860 1530 L837 1530C825 1530 731 1529 630 1527 L445 1525 441 1487 C440 1466 441 1450 444 1450 L450 1450"/>
      <path id="pFewT0X6x" d="M870 1380 L873 1380C875 1380 882 1373 889 1365 C895 1357 899 1333 898 1311 C896 1289 891 1268 887 1265 L880 1260L880 1260 L880 1255C880 1252 882 1250 885 1250 L890 1250L890 1250 L900 1255C905 1258 910 1278 910 1300 C910 1322 910 1346 910 1355 L910 1370L910 1370 L898 1380C891 1385 882 1390 878 1390 C873 1390 870 1387 870 1385 L870 1380"/>
      <path id="pfMTuvecu" d="M440 1340 L440 1325C440 1316 440 1307 440 1305 C440 1302 440 1297 440 1295 L440 1290L440 1290 L455 1285C464 1282 509 1280 555 1280 C602 1280 642 1280 645 1280 L650 1280L650 1280 L657 1279C661 1279 704 1281 752 1284 L840 1290L840 1290 L837 1292C836 1293 753 1295 654 1297 C555 1299 470 1298 466 1295 L460 1290L460 1290 L454 1299C452 1304 452 1315 456 1324 C461 1337 485 1340 626 1340 C716 1340 803 1340 820 1340 L850 1340L850 1340 L717 1345C644 1347 581 1350 577 1350 C573 1350 549 1350 525 1350 L480 1350L480 1350 L475 1350C472 1350 465 1350 460 1350 C454 1350 450 1347 450 1345 C450 1342 447 1340 445 1340 L440 1340"/>
      <path id="pFlSbzGwz" d="M420 1250 L420 1247C421 1246 423 1240 425 1234 C428 1228 428 1220 425 1216 L420 1210L420 1210 L415 1210C412 1210 410 1207 410 1205 L410 1200L415 1200 421 1203 L420 1210 L600 1210C699 1210 782 1210 785 1210 C787 1210 801 1210 815 1210 L840 1210L840 1210 L860 1210L880 1210L880 1210 L885 1210C887 1210 890 1207 890 1205 L890 1200L890 1200 L895 1200C897 1200 900 1177 900 1150 C900 1123 895 1098 890 1095 L880 1090L880 1090 881 1081 L890 1080 L894 1080C897 1080 904 1089 910 1101 C917 1113 919 1140 916 1162 C913 1184 907 1206 902 1211 C897 1216 890 1220 887 1220 L880 1220L880 1220 L717 1220C628 1221 560 1223 567 1226 C574 1229 580 1233 580 1235 L580 1240L580 1240 L575 1240C572 1240 543 1240 510 1240 C478 1240 444 1242 435 1245 L420 1250"/>
      <path id="pNvExL4Ja" d="M440 1180 L439 1172C439 1168 440 1151 442 1135 L445 1105 652 1102 L860 1100L860 1103 857 1107 L850 1110 L663 1115C551 1118 470 1125 463 1131 C455 1137 450 1148 450 1156 C450 1163 450 1172 450 1175 L450 1180L450 1180 L605 1180C690 1180 762 1180 765 1180 C767 1180 790 1180 815 1180 L860 1180L860 1180 L860 1185C860 1187 857 1190 855 1190 L850 1190L850 1190 L822 1190C807 1190 715 1188 617 1185 L440 1180"/>
      <path id="pOOq2XXI6" d="M440 1020 L440 1005L440 990L440 990 L460 990C471 990 482 990 485 990 C487 990 510 990 535 990 L580 990L580 986 590 993 L590 1000 L600 1000C605 1000 610 1004 610 1010 C610 1015 607 1020 605 1020 L600 1020L600 1020 L580 1020C569 1020 557 1020 555 1020 C552 1020 525 1020 495 1020 L440 1020"/>
      <path id="p1Bz8nVPvA" d="M480 860 L490 840L500 820L500 810 L510 810 L510 820 L518 831C523 837 539 840 554 837 C568 834 582 836 585 841 C588 846 615 850 645 850 C675 850 713 850 730 850 L760 850L760 850 L672 855C624 858 581 860 577 860 C573 860 549 860 525 860 L480 860"/>
      <path id="p9vCjZKxR" d="M420 440 L425 432C429 428 533 423 658 422 C782 421 890 423 897 428 C904 432 910 439 910 443 L910 450L910 450 L905 450C902 450 897 450 895 450 L890 450L890 450 L886 445C884 442 880 440 876 440 L870 440L870 440 L825 440C800 440 777 440 775 440 C772 440 711 440 640 440 L510 440L510 440 L502 439C498 439 478 441 457 444 L420 450L420 450 L420 485C420 504 420 522 420 525 C420 527 420 550 420 575 L420 620L423 620 417 627 L410 630 L410 585C410 560 409 536 409 532 C409 528 411 505 414 482 L420 440"/>
    </g>
  </g>
  <g id="l533JvdhLOAUEpyR3GhUiUcj" fill="rgb(174,225,102)" stroke="rgb(174,225,102)" stroke-width="1" fill-rule="evenodd" style="transform: none;">
    <g>
      <path id="pdpkh5uBW" d="M648 1981 C635 1970 644 1940 660 1940 C665 1940 672 1946 675 1955 C681 1974 663 1992 648 1981 "></path>
    </g>
  </g>
  <g id="l64ukMOabkKDq8NLKZIhxg4j" fill="rgb(174,175,173)" stroke="rgb(174,175,173)" stroke-width="1" fill-rule="evenodd" style="transform: none;">
    <g>
      <path id="pc9bV8vR7" d="M280 2350 L280 1855C280 1582 280 1357 280 1355 C280 1352 280 1116 280 830 L280 310L280 313 286 310 L290 320 L290 1330L290 2340 665 2340 C871 2340 1040 2342 1040 2345 L1040 2350L1040 2350 1031 2353 L1020 2350 L900 2350C834 2350 777 2350 775 2350 C772 2350 659 2350 525 2350 L280 2350"/>
      <path id="puQdL9ovp" d="M680 1980 L680 1972C680 1968 677 1959 675 1952 C672 1945 665 1940 660 1940 C654 1940 646 1947 642 1956 C639 1966 641 1975 648 1977 C654 1979 660 1983 660 1985 L660 1990L660 1990 L649 1995C643 1999 632 1996 624 1989 C616 1983 610 1970 610 1960 C610 1951 615 1938 621 1932 C628 1925 648 1920 666 1920 C691 1920 699 1924 699 1937 C699 1947 695 1960 689 1967 L680 1980"/>
      <path id="p1hycN32Z" d="M740 1250 L667 1244C627 1241 591 1239 587 1239 L580 1240L580 1240 L580 1235C580 1233 574 1229 567 1226 C560 1223 628 1221 717 1220 L880 1220L880 1220 L880 1222C881 1223 883 1230 885 1237 L890 1250L890 1246 880 1253 L870 1250 L862 1249C858 1248 851 1246 847 1243 C843 1240 840 1241 840 1244 C840 1247 817 1250 790 1250 L740 1250"/>
      <path id="ppJqqPWIS" d="M880 880 L885 880C887 880 890 878 890 876 C890 874 892 870 895 866 L900 860L900 860 L905 817C908 794 910 771 910 767 L910 760L910 760 L905 720L900 680L910 680 L915 680C917 680 919 721 919 772 C919 823 916 870 911 877 C907 884 900 890 896 890 L890 890L880 886 885 880 "/>
      <path id="pCIX728hl" d="M510 810 L520 810 L535 810L550 810L550 810 L648 810C702 810 749 813 753 816 C757 820 760 824 760 826 L760 830L760 830 L760 835C760 837 760 842 760 845 L760 850L760 850 L730 850C713 850 675 850 645 850 C615 850 588 846 585 841 C582 836 568 834 554 837 C539 840 523 837 518 831 L510 820"/>
      <path id="pQ7yhTRqh" d="M440 600 L445 560L450 520L450 520 L455 520C457 520 460 524 460 530 C460 535 466 540 474 540 C481 540 495 537 504 533 C512 530 520 526 520 523 L520 520L520 523 530 523 L530 530 L537 532C541 533 568 534 596 533 C642 532 649 535 653 553 C655 565 657 576 658 577 L660 580L660 580 L650 580C644 580 640 573 640 565 C640 552 626 550 567 554 C527 556 486 561 476 565 C462 571 461 574 471 581 C478 585 526 589 577 589 L670 590L670 580 L675 580C677 580 680 577 680 575 L680 570L680 570 L685 570C687 570 692 570 695 570 C697 570 706 570 715 570 L730 570L730 570 L742 566C749 564 754 555 753 546 C752 537 758 530 766 530 C773 530 780 536 780 545 C780 553 782 560 785 560 L790 560L790 560 L817 565C832 568 848 570 852 570 L860 570L860 570 L860 575C860 577 862 580 865 580 L870 580L870 580 L861 595C855 608 824 610 649 607 C537 605 443 603 442 602 L440 600"/>
      <path id="prf117bft" d="M900 390 L920 390L940 390L940 390 L940 435L940 480L940 480 L935 480C932 480 930 462 930 440 C930 415 924 399 915 395 L900 390"/>
      <path id="p8XzzA3R4" d="M280 240 L295 225L310 210L310 210 L320 215L330 220L330 220 L320 235L310 250L310 250 L300 245C295 242 289 240 285 240 L280 240"/>
      <path id="p14jBONNGo" d="M1240 100 L1240 95C1240 92 1241 89 1242 89 C1243 89 1255 80 1267 69 L1290 50L1290 50 L1296 50C1299 50 1299 43 1296 35 C1293 26 1294 20 1300 20 L1310 20L1310 20 L1310 40L1310 60L1310 60 L1300 70L1290 80L1290 80 L1265 90L1240 100"/>
    </g>
  </g>
  <g id="l4eEzkgJMG6c1dA29fhnHrej" fill="rgb(187,187,187)" stroke="rgb(187,187,187)" stroke-width="1" fill-rule="evenodd" style="transform: none;">
    <g> 
      <path id="p1EpW328qe" d="M1031 2353 L1040 2350 L1040 2340 L1035 2340C1032 2340 863 2340 660 2340 L290 2340 290 1325 L290 310L286 310 290 303 L300 300 L315 300C323 300 332 300 335 300 C337 300 499 300 695 300 L1050 300L1050 300 L1050 307C1050 311 1047 772 1045 1332 L1040 2350L1040 2350 1036 2360 L1035 2355 1031 2353 M870 2250 L905 2250L940 2250L940 2250 L952 2253C959 2255 966 2266 968 2278 C970 2297 966 2300 933 2300 C912 2301 872 2300 845 2300 C817 2299 791 2295 786 2293 C782 2290 786 2279 795 2269 C805 2258 825 2250 841 2250 L870 2250M470 2260 L473 2254C475 2251 489 2251 503 2255 C518 2259 530 2267 530 2275 C530 2282 522 2290 514 2293 C505 2297 485 2300 469 2300 C453 2300 437 2300 435 2300 L430 2300L430 2300 L425 2300C422 2300 401 2300 379 2300 C342 2300 338 2297 341 2277 C343 2262 353 2253 368 2251 C380 2249 408 2251 430 2254 L470 2260M870 2170 L905 2170C924 2170 942 2170 945 2170 L950 2170L950 2170 L957 2175C961 2178 966 2190 968 2200 C971 2218 965 2219 903 2219 C865 2219 828 2215 821 2210 C813 2205 809 2194 813 2186 C816 2177 830 2170 844 2170 L870 2170M420 2190 L415 2190C412 2190 396 2190 380 2190 C364 2190 348 2185 345 2181 C342 2176 347 2169 355 2166 C364 2162 373 2160 375 2160 L380 2160L380 2160 L427 2160C453 2160 485 2163 497 2166 C510 2169 519 2177 517 2183 C515 2189 498 2196 480 2198 C462 2199 441 2198 434 2195 L420 2190M840 2130 L833 2130C829 2130 815 2122 801 2113 C779 2099 778 2096 794 2087 C803 2082 813 2080 815 2084 L820 2090L820 2090 L830 2090C835 2090 840 2087 840 2085 C840 2082 864 2080 895 2080 C925 2080 950 2082 950 2085 L950 2090L950 2090 L955 2096C958 2100 958 2108 955 2114 C953 2120 951 2126 950 2127 L950 2130L950 2130 L962 2134C969 2136 944 2138 907 2139 C870 2139 840 2137 840 2135 L840 2130M450 2110 L442 2110C438 2110 414 2109 390 2107 C365 2106 345 2100 347 2095 C348 2089 360 2083 374 2082 L400 2080L400 2080 L447 2080C473 2080 501 2084 508 2089 C516 2093 519 2102 515 2108 C511 2114 498 2120 486 2120 C473 2120 460 2117 456 2115 L450 2110M430 2030 L395 2030L360 2030L360 2030 L350 2035C345 2037 338 2031 335 2020 C331 2009 331 1995 334 1990 C338 1984 369 1980 405 1980 C440 1980 480 1985 494 1991 C508 1997 520 2009 520 2016 C520 2023 508 2032 494 2035 C481 2039 460 2039 449 2036 L430 2030M807 2030 C784 2011 821 1999 895 2002 C944 2004 964 2008 962 2017 C959 2033 825 2044 807 2030 M680 1980 L676 1980C674 1980 670 1982 666 1985 L660 1990L660 1990 L649 1995C643 1999 632 1996 624 1989 C616 1983 610 1970 610 1960 C610 1951 615 1938 621 1932 C628 1925 648 1920 666 1920 C691 1920 699 1924 699 1937 C699 1947 695 1960 689 1967 L680 1980M870 1920 L909 1920C931 1920 951 1924 954 1929 C957 1934 960 1940 960 1944 L960 1950L960 1950 L960 1955C960 1958 920 1959 872 1957 C802 1955 785 1951 785 1940 C785 1929 797 1924 827 1922 L870 1920M360 1900 L375 1900C383 1900 392 1900 395 1900 C397 1900 404 1900 410 1900 L420 1900L420 1900 L449 1900C465 1900 485 1902 494 1906 C506 1910 507 1915 499 1926 C492 1933 479 1940 468 1940 C458 1940 447 1940 445 1940 L440 1940L440 1940 L440 1945C440 1948 416 1949 387 1948 C341 1945 334 1942 331 1922 C329 1907 333 1900 344 1900 L360 1900M877 1872 C830 1860 778 1834 786 1826 C794 1818 954 1817 962 1825 C965 1828 966 1839 963 1850 C959 1873 922 1883 877 1872 M360 1820 L375 1820C383 1820 392 1820 395 1820 C397 1820 404 1820 410 1820 L420 1820L420 1820 L435 1820C443 1820 452 1820 455 1820 C457 1820 464 1820 470 1820 L480 1820L480 1820 L501 1822C513 1823 525 1829 526 1835 C528 1841 518 1851 504 1858 C490 1864 445 1870 404 1870 C331 1870 330 1869 330 1845 C330 1829 335 1820 345 1820 L360 1820M595 1847 C588 1814 587 1815 613 1786 C627 1768 642 1761 652 1765 C666 1770 666 1774 648 1804 C638 1822 629 1842 629 1848 C630 1871 600 1870 595 1847 M880 1780 L860 1780L840 1780L840 1780 L830 1780C825 1780 814 1777 805 1773 C796 1770 790 1762 792 1756 C794 1750 817 1743 843 1742 L890 1740L890 1740 L922 1742C947 1744 955 1749 955 1765 C955 1780 947 1785 917 1788 C896 1789 880 1788 880 1785 L880 1780M360 1730 L365 1730C367 1730 372 1730 375 1730 C377 1730 386 1730 395 1730 L410 1730L410 1730 L457 1732C491 1734 505 1739 505 1750 C505 1760 492 1765 460 1767 C435 1769 411 1770 407 1770 L400 1770L400 1770 L380 1770L360 1770L360 1770 L352 1770C348 1770 339 1767 332 1765 C325 1762 320 1753 320 1745 C320 1736 328 1730 340 1730 L360 1730M970 1240 L970 1380C970 1457 970 1522 970 1525 C970 1527 970 1550 970 1575 L970 1620L970 1620 L965 1640L960 1660L960 1660 L952 1665C948 1667 941 1670 937 1670 C933 1670 878 1670 815 1670 L700 1670L700 1670 L617 1670C572 1670 495 1667 447 1665 L360 1660L360 1660 L351 1664C346 1667 339 1662 336 1654 C332 1645 330 1358 330 1015 C329 423 330 392 348 376 C364 361 398 359 665 362 L965 365 967 802 L970 1240M390 1640 L390 1637C390 1635 385 1629 379 1623 C373 1617 370 1403 372 1004 L375 395 637 392 L900 390L900 390 L915 395C924 399 930 415 930 440 C930 462 932 480 935 480 L940 480L940 480 L940 520C940 542 940 562 940 565 C940 567 940 599 940 635 L940 700L940 700 L935 700C933 700 929 680 927 657 C924 617 923 616 913 640 C907 653 904 668 906 672 L910 680L910 680 L905 680C902 680 897 680 895 680 L890 680L890 680 L795 680L700 680L700 680 L692 679C688 679 625 682 552 684 L420 690L420 690 L420 725C420 744 420 762 420 765 C420 767 420 790 420 815 L420 860L420 860 L420 865C420 867 418 873 417 877 C416 881 446 886 485 887 C523 889 565 890 577 890 L600 890L600 890 L600 900C600 906 656 910 750 910 C832 910 900 912 900 915 C900 917 900 922 900 925 L900 930L900 930 L910 930C915 930 920 951 920 978 C920 1007 914 1032 906 1038 C899 1044 890 1050 886 1050 L880 1050L877 1047 878 1038 L890 1040 L895 1033C897 1029 900 1007 900 983 C900 959 900 937 900 935 L900 930L900 930 L897 927C896 926 785 924 652 922 L410 919 410 979 C410 1012 412 1040 415 1040 L420 1040L420 1040 L420 1045C420 1047 422 1050 425 1050 C427 1050 529 1050 650 1050 L870 1050L870 1050 L864 1060C861 1065 863 1070 869 1070 C875 1070 880 1072 880 1075 L880 1080L881 1081 870 1085 L860 1080 L637 1082L415 1085 412 1135 C410 1162 409 1188 409 1192 L410 1200L410 1200 L410 1205C410 1207 412 1210 415 1210 L420 1210L420 1210 L425 1216C428 1220 428 1228 425 1234 C423 1240 421 1246 420 1247 L420 1250L427 1250 422 1257 L410 1260 L410 1265C410 1267 410 1272 410 1275 L410 1280L410 1280 L409 1287C409 1291 411 1311 414 1332 L420 1370L420 1370 L420 1376C420 1380 422 1384 425 1386 L430 1390L430 1390 L430 1398C430 1402 427 1408 425 1411 C422 1414 420 1419 420 1423 L420 1430L420 1430 L415 1430C412 1430 410 1454 410 1485 C410 1515 412 1540 415 1540 L420 1540L420 1540 L567 1545C648 1547 718 1550 722 1550 C726 1550 763 1550 805 1550 L880 1550L880 1550 L872 1555C868 1557 861 1560 857 1560 C853 1560 829 1560 805 1560 L760 1560L760 1560 L745 1560C736 1560 727 1560 725 1560 C722 1560 717 1560 715 1560 L710 1560L710 1560 L580 1560C509 1560 444 1562 435 1566 C421 1571 421 1573 437 1585 C453 1597 451 1599 420 1607 C388 1614 393 1615 460 1621 C501 1624 590 1627 657 1628 C724 1629 782 1630 785 1630 L790 1630L790 1630 L810 1630C821 1630 832 1630 835 1630 C837 1630 860 1630 885 1630 L930 1630L930 1625 942 1632 L935 1635 930 1645 L930 1640 L815 1640C751 1640 697 1640 695 1640 C692 1640 683 1640 675 1640 L660 1640L660 1640 L545 1640C481 1640 427 1640 425 1640 C422 1640 413 1640 405 1640 L390 1640M420 630 L415 630C412 630 410 587 410 535 C410 482 412 440 415 440 L420 440L420 440 L425 432C429 428 533 423 658 422 C782 421 890 423 897 428 C904 432 910 439 910 443 L910 450L910 450 L910 457C910 461 908 499 905 542 L900 620L900 620 L894 627C890 631 886 638 883 642 C880 646 778 650 656 650 C533 650 430 647 426 643 C423 639 420 635 420 633 L420 630M660 575 L672 582 L670 590 L665 590C662 590 620 589 572 589 C524 589 478 585 471 581 C461 574 462 571 476 565 C486 561 527 556 567 554 C626 550 640 552 640 565 C640 573 642 580 645 580 L650 580M900 1530 L900 1515C900 1506 900 1496 900 1492 C900 1488 898 1472 895 1457 L890 1430L890 1430 L890 1425C890 1422 887 1420 885 1420 L880 1420L880 1420 L855 1420C841 1420 792 1420 746 1420 C700 1420 647 1416 628 1412 L595 1405 622 1397 L650 1390L650 1390 L702 1390C731 1390 780 1388 812 1385 L870 1380L870 1380 L870 1385C870 1387 873 1390 878 1390 C882 1390 891 1385 898 1380 L910 1370L911 1368 915 1380 L910 1390 L899 1395C892 1399 894 1407 904 1419 C914 1430 920 1455 920 1489 C920 1519 917 1540 913 1536 C909 1533 905 1530 903 1530 L900 1530M450 1450 L645 1450L840 1450L850 1450 L855 1450C857 1450 860 1452 860 1455 L860 1460L860 1460 L859 1462C859 1463 854 1475 849 1487 C840 1510 839 1510 647 1507 C463 1505 454 1504 452 1485 C450 1474 449 1461 449 1457 L450 1450M460 1290 L466 1295C470 1298 555 1299 654 1297 C753 1295 836 1293 837 1292 L840 1290L840 1290 L845 1290C847 1290 852 1290 855 1290 L860 1290L860 1290 L865 1297C868 1300 868 1310 866 1319 C864 1328 861 1336 861 1337 L860 1340L857 1342 850 1345 L840 1340 L810 1340C793 1340 708 1340 621 1340 C485 1340 461 1337 456 1324 C452 1315 452 1304 454 1299 L460 1290M450 1180 L450 1175C450 1172 450 1163 450 1156 C450 1148 455 1137 463 1131 C471 1124 552 1118 668 1115 L860 1110L860 1110 L863 1132C865 1144 865 1159 864 1165 C862 1170 861 1176 860 1177 L860 1180L860 1180 L815 1180C790 1180 767 1180 765 1180 C762 1180 690 1180 605 1180 L450 1180M770 740 L766 735C764 732 760 730 756 730 L750 730L750 730 L745 723C742 719 740 715 740 713 L740 710L740 710 L750 710C755 710 762 710 765 710 C767 710 790 710 815 710 L860 710L860 705 872 712 L870 720 L855 730L840 740L840 740 L805 740L770 740"/>
      <path id="p179B7ySdE" d="M380 140 L395 125L410 110L410 110 L425 115L440 120L440 120 L436 125C434 127 431 130 428 130 C425 130 420 132 416 135 L410 140L410 140 L410 135C410 132 405 130 400 130 C394 130 390 132 390 135 C390 137 387 140 385 140 L380 140"/>
    </g>
  </g>
  <g id="l3TNd9nj9Zq7NmE3CA5W9Q2j" fill="rgb(204,204,204)" stroke="rgb(204,204,204)" stroke-width="1" fill-rule="evenodd" style="transform: none;">
    <g> 
      <path id="p11dsTitui" d="M710 1560 L710 1565C710 1567 687 1570 660 1570 C632 1570 610 1574 610 1579 C610 1584 607 1595 603 1604 C599 1615 603 1620 618 1620 C630 1620 642 1620 645 1620 L650 1620L650 1620 L657 1619C661 1619 693 1621 727 1624 L790 1630L790 1630 L785 1630C782 1630 724 1629 657 1628 C590 1627 501 1624 460 1621 C393 1615 388 1614 420 1607 C451 1599 453 1597 437 1585 C421 1573 421 1571 435 1566 C444 1562 509 1560 580 1560 L710 1560"/>
      <path id="plBvU9CtW" d="M910 1370 L910 1355C910 1346 910 1322 910 1300 C910 1278 905 1258 900 1255 L890 1250L890 1250 L885 1237C883 1230 881 1223 880 1222 L880 1220L880 1220 L887 1220C890 1220 898 1215 903 1210 C908 1205 914 1182 916 1158 C919 1131 916 1108 908 1097 C900 1087 891 1079 887 1079 L880 1080L880 1080 L880 1075C880 1073 874 1069 867 1066 C860 1063 858 1061 862 1060 L870 1060L872 1052 877 1047 L890 1050 L893 1050C894 1050 901 1044 908 1038 C914 1031 920 1004 920 978 C920 951 915 930 910 930 L900 930L900 930 L900 925C900 922 900 917 900 915 C900 912 832 910 750 910 C656 910 600 906 600 900 L600 890L600 890 L655 890C685 890 712 890 715 890 C717 890 756 890 800 890 L880 890L880 890 L885 890C887 890 894 890 898 890 C903 890 910 882 913 874 C917 865 920 818 920 769 C920 720 917 680 915 680 L910 680L910 680 L906 672C904 668 907 653 913 640 C923 616 924 617 927 657 C929 680 933 700 935 700 L940 700L940 702 943 710 L940 720 L940 805C940 851 940 892 940 895 C940 897 940 967 940 1050 L940 1200L940 1200 L940 1220L940 1240L940 1240 L931 1250C927 1255 922 1283 921 1312 C919 1341 916 1365 914 1367 L910 1370"/>
    </g>
  </g>
  <g id="l2sXoJnbpCl0p9AhqDNP26Nj" fill="rgb(217,217,217)" stroke="rgb(217,217,217)" stroke-width="1" fill-rule="evenodd" style="transform: none;">
    <g>
      <path id="priSQZrka" d="M910 1370 L914 1367C916 1365 919 1341 921 1312 C922 1283 927 1255 931 1250 L940 1240L940 1240 L945 1430L950 1620L950 1620 L950 1625C950 1627 947 1630 945 1630 L940 1630L930 1630 L930 1587C931 1564 931 1509 930 1465 C930 1421 925 1382 919 1378 L910 1370"/>
      <path id="p1H0qSC30g" d="M710 1560 L715 1560C717 1560 722 1560 725 1560 C727 1560 736 1560 745 1560 L760 1560L760 1560 L757 1582C755 1602 748 1605 702 1608 C673 1609 650 1613 650 1615 L650 1620L650 1620 L645 1620C642 1620 630 1620 618 1620 C603 1620 599 1615 603 1604 C607 1595 610 1584 610 1579 C610 1574 632 1570 660 1570 C687 1570 710 1567 710 1565 L710 1560"/>
      <path id="pRRE4YzKG" d="M1090 240 L1090 235C1090 233 1094 219 1100 204 C1107 185 1114 180 1128 184 C1139 188 1155 180 1173 161 C1195 139 1200 124 1198 98 C1195 66 1192 64 1145 58 C1117 55 980 51 841 51 C674 51 584 47 578 40 L570 30L570 30 L923 30C1117 30 1279 33 1283 36 C1287 40 1290 44 1290 46 L1290 50L1290 50 L1267 69C1255 80 1243 89 1242 89 C1241 89 1240 92 1240 95 L1240 100L1240 100 L1183 165C1152 200 1121 230 1115 230 C1108 230 1100 232 1096 235 L1090 240"/>
    </g>
  </g>
  <g id="l5bKePnUyxZiOAmORdhvHc1j" fill="rgb(229,229,229)" stroke="rgb(229,229,229)" stroke-width="1" fill-rule="evenodd" style="transform: none;">
    <g>
      <path id="p2kvabr7e" d="M650 1620 L650 1615C650 1613 673 1609 702 1608 C748 1605 755 1602 757 1582 L760 1560L760 1560 L805 1560C829 1560 853 1560 857 1560 C861 1560 868 1557 872 1555 L880 1550L880 1550 L885 1550C887 1550 890 1548 890 1546 C890 1544 892 1540 895 1536 L900 1530L900 1530 L903 1530C905 1530 909 1533 913 1536 C917 1540 920 1518 920 1487 C920 1450 915 1428 904 1419 C894 1410 892 1403 899 1393 L910 1380L910 1380 L919 1382C925 1383 930 1420 930 1465 C931 1509 931 1564 930 1587 L930 1630L930 1630 L885 1630C860 1630 837 1630 835 1630 C832 1630 821 1630 810 1630 L790 1630L790 1630 L727 1624C693 1621 661 1619 657 1619 L650 1620"/>
      <path id="pxcDarTud" d="M310 250 L320 235L330 220L330 220 L335 213C337 209 340 205 340 203 C340 201 342 200 345 200 C347 200 351 199 352 199 C353 199 367 185 382 169 L410 140L410 140 L416 135C420 132 425 130 428 130 C431 130 434 127 436 125 L440 120L440 120 L445 113C447 109 450 105 450 105 C450 104 459 95 470 86 L490 70L490 70 L492 70C494 70 502 61 510 50 C517 39 534 30 547 30 L570 30L570 30 L578 40C584 47 674 51 841 51 C980 51 1117 55 1145 58 C1192 64 1195 66 1198 98 C1200 124 1195 139 1173 161 C1155 180 1139 188 1128 184 C1114 180 1107 185 1100 204 C1094 219 1090 233 1090 235 L1090 240L1090 240 L1075 255L1060 270L1060 270 L685 260L310 250"/>
    </g>
  </g> 
</svg>